<?xml version="1.0" standalone="no"?>
<!DOCTYPE svg PUBLIC "-//W3C//DTD SVG 1.1//EN" "http://www.w3.org/Graphics/SVG/1.1/DTD/svg11.dtd" >
<svg>
<metadata>
Created by FontForge 20110222 at Mon Mar  7 13:06:41 2011
 By www-data
Galdino Otten, Copyright 2009
</metadata>
<defs>
<font id="FineSerif" horiz-adv-x="1500" >
  <font-face 
    font-family="Fine Serif"
    font-weight="400"
    font-stretch="normal"
    units-per-em="2048"
    panose-1="4 3 9 5 2 11 2 2 12 2"
    ascent="1638"
    descent="-410"
    x-height="1497"
    cap-height="1810"
    bbox="-300 -480 2536 1907"
    underline-thickness="214"
    underline-position="-104"
    unicode-range="U+0020-00D1"
  />
    <missing-glyph />
    <glyph glyph-name="space" unicode=" " horiz-adv-x="512" 
 />
    <glyph glyph-name="space" unicode="&#xa0;" horiz-adv-x="512" 
 />
    <glyph glyph-name="exclam" unicode="!" horiz-adv-x="682" 
d="M360 359h-38l-88 810q-6 53 -6 79q0 63 33.5 101t80.5 38t79.5 -38t32.5 -113q0 -24 -4 -67zM340 193q46 0 78.5 -32.5t32.5 -77.5q0 -46 -32.5 -78.5t-78.5 -32.5t-78.5 32.5t-32.5 78.5q0 45 32.5 77.5t78.5 32.5z" />
    <glyph glyph-name="quotedbl" unicode="&#x22;" horiz-adv-x="836" 
d="M576 803l-54 292l-22 121q-2 25 -2 50q0 63 28 92t74 29q43 0 71.5 -29t28.5 -78q0 -85 -19 -184l-57 -293h-48zM210 803l-55 296q-22 122 -22 166q0 64 26.5 93t71.5 29q44 0 73 -29.5t29 -78.5q0 -39 -26 -181l-54 -295h-43z" />
    <glyph glyph-name="numbersign" unicode="#" horiz-adv-x="1024" 
d="M115 -28l93 455h-171v82h187l69 343h-256v80h275l91 455h83l-91 -455h337l97 455h83l-95 -455h170v-80h-185l-70 -343h255v-82h-272l-93 -455h-81l91 455h-339l-95 -455h-83zM308 509h339l72 343h-341z" />
    <glyph glyph-name="dollar" unicode="$" horiz-adv-x="1024" 
d="M108 334h44q11 -137 86 -210t224 -87v584q-225 139 -300 246q-53 76 -53 185q0 123 91.5 215t261.5 111v92h64v-92q82 -5 138 -19q29 -7 192 -69v-299h-39q-13 159 -82.5 232.5t-208.5 87.5v-508q252 -176 323.5 -259.5t71.5 -207.5q0 -138 -104.5 -243t-290.5 -121v-128
h-64v128q-94 4 -175 21.5t-179 57.5v283zM462 845v465q-100 -12 -148.5 -63.5t-48.5 -129.5q0 -73 44 -136.5t153 -135.5zM526 37q75 13 115 37q56 35 88.5 91.5t32.5 120.5q0 66 -39.5 125t-196.5 167v-541z" />
    <glyph glyph-name="percent" unicode="%" horiz-adv-x="1706" 
d="M1392 1387l-988 -1443h-89l988 1443h89zM364 1387q135 0 209.5 -112t74.5 -257q0 -174 -84 -269t-202 -95q-79 0 -145 43.5t-105.5 129.5t-39.5 191t40 193.5t109.5 132t142.5 43.5zM361 1331q-51 0 -90.5 -60t-39.5 -252q0 -139 22 -212q17 -55 53 -85q21 -18 52 -18
q48 0 82 52q50 77 50 257q0 190 -49 267q-32 51 -80 51zM1346 673q71 0 141.5 -45t109 -131t38.5 -189q0 -177 -85 -270.5t-201 -93.5q-73 0 -141.5 45t-108 128.5t-39.5 190.5q0 105 39.5 192t108 130t138.5 43zM1347 620q-48 0 -83 -54q-45 -70 -45 -265q0 -179 46 -250
q34 -51 82 -51q46 0 82 55q48 73 48 251q0 188 -48 263q-33 51 -82 51z" />
    <glyph glyph-name="ampersand" unicode="&#x26;" horiz-adv-x="1873" 
d="M732 1492h52q145 0 236 -144q28 -51 28 -120q0 -220 -336 -376q0 -8 -12 -8l-4 -4v-4q116 -214 284 -440q117 148 156 248h100v-4q-50 -102 -204 -308q322 -376 536 -376q137 0 192 160q40 -23 40 -36q-41 -153 -140 -232q-82 -48 -160 -48q-244 0 -624 372
q-223 -212 -472 -212q-280 0 -376 244l-8 60v36q0 277 444 516q-88 192 -88 316q0 269 284 352zM564 1224q0 -103 92 -312q264 132 264 316q0 128 -112 176l-60 8q-135 0 -180 -164zM244 388q0 -203 188 -280q42 -12 84 -12q151 0 304 144q-230 298 -316 500
q-260 -154 -260 -352z" />
    <glyph glyph-name="quotesingle" unicode="'" horiz-adv-x="369" 
d="M158 803l-54 296q-23 123 -23 166q0 64 26 93t71 29t74.5 -29.5t29.5 -77.5q0 -37 -26 -182l-54 -295h-44z" />
    <glyph glyph-name="parenleft" unicode="(" horiz-adv-x="682" 
d="M636 -401v-37q-151 76 -252 178q-144 145 -222 342t-78 409q0 310 153 565.5t399 365.5v-42q-123 -68 -202 -186t-118 -299t-39 -378q0 -214 33 -389q26 -138 63 -221.5t99.5 -160.5t163.5 -147z" />
    <glyph glyph-name="parenright" unicode=")" horiz-adv-x="682" 
d="M46 1380v42q152 -75 253 -177q143 -146 221 -342.5t78 -409.5q0 -310 -152.5 -565.5t-399.5 -365.5v37q123 69 202.5 186.5t118 299t38.5 378.5q0 213 -33 389q-25 138 -62.5 221t-99.5 160t-164 147z" />
    <glyph glyph-name="plus" unicode="+" horiz-adv-x="1024" 
d="M494 1044q-4 69 -28 137q-34 98 -34 135q0 52 24.5 79t60.5 27q31 0 54 -27t23 -77q0 -45 -26.5 -125.5t-32.5 -148.5q55 35 99 85q68 79 101 98t67 19q33 0 55.5 -22.5t22.5 -53.5q0 -37 -33 -66t-165 -58q-77 -17 -128 -39q52 -27 127 -41q121 -22 158.5 -55t37.5 -72
q0 -30 -22.5 -52t-52.5 -22t-66.5 21t-98.5 94q-41 49 -102 92q2 -57 23 -124q36 -118 36 -161q0 -40 -24 -67.5t-51 -27.5q-37 0 -67 29q-21 21 -21 67q0 48 23 115.5t29 93t11 75.5q-59 -39 -103 -87q-73 -82 -110 -104q-26 -16 -54 -16q-34 0 -58 23t-24 51
q0 25 20.5 52.5t61.5 45.5q27 12 123 32q62 13 121 38q-54 27 -129 42q-123 26 -152 47q-45 33 -45 80q0 27 22.5 49.5t52.5 22.5q33 0 70 -21t92 -84.5t112 -98.5z" />
    <glyph glyph-name="comma" unicode="," horiz-adv-x="1155" 
d="M535 141v499h-498v82h498v497h80v-497h500v-82h-500v-499h-80z" />
    <glyph glyph-name="hyphen" unicode="-" horiz-adv-x="512" 
d="M110 -341v44q103 34 159.5 105.5t56.5 151.5q0 19 -9 32q-7 9 -14 9q-11 0 -48 -20q-18 -9 -38 -9q-49 0 -78 29t-29 80q0 49 37.5 84t91.5 35q66 0 117.5 -57.5t51.5 -152.5q0 -103 -71.5 -191.5t-226.5 -139.5z" />
    <glyph glyph-name="hyphen" unicode="&#xad;" horiz-adv-x="512" 
d="M110 -341v44q103 34 159.5 105.5t56.5 151.5q0 19 -9 32q-7 9 -14 9q-11 0 -48 -20q-18 -9 -38 -9q-49 0 -78 29t-29 80q0 49 37.5 84t91.5 35q66 0 117.5 -57.5t51.5 -152.5q0 -103 -71.5 -191.5t-226.5 -139.5z" />
    <glyph glyph-name="period" unicode="." horiz-adv-x="682" 
d="M83 535h517v-151h-517v151z" />
    <glyph glyph-name="slash" unicode="/" horiz-adv-x="569" 
d="M574 1422l-491 -1450h-80l491 1450h80z" />
    <glyph glyph-name="zero" unicode="0" horiz-adv-x="1400" 
d="M669 1833h45q301 0 536 -371q133 -259 133 -515v-61q0 -349 -220 -642q-214 -244 -449 -244h-45q-301 0 -536 371q-133 259 -133 515v61q0 349 220 642q214 244 449 244zM348 912q0 -490 211 -751q76 -56 110 -56h45q83 0 188 166q133 271 133 650q0 490 -211 751
q-76 56 -110 56h-45q-83 0 -188 -166q-133 -269 -133 -650z" />
    <glyph glyph-name="one" unicode="1" horiz-adv-x="800" 
d="M448 1810h144l8 -9v-1722h160l8 -9v-61l-8 -9h-620l-8 9v61l8 9h160v1541h-4l-288 -218h-8v69q55 50 416 320q14 19 32 19z" />
    <glyph glyph-name="two" unicode="2" horiz-adv-x="1400" 
d="M709 1810h40q266 0 479 -324q62 -146 62 -262q0 -297 -326 -543q-482 -426 -734 -557v-5h595q329 0 403 205q44 84 71 243l50 19l4 -5v-571l-9 -10h-1315l-9 10v147l9 10l58 -29q192 120 756 681q143 183 143 405q0 288 -206 462q-77 48 -152 48q-212 0 -353 -291
q-22 -64 -40 -224l-41 -28l-4 5v404q72 58 233 129q169 81 286 81z" />
    <glyph glyph-name="three" unicode="3" 
d="M57 1806l1337 -5l51 -296l-6 -5h-56l-587 -337v-5q280 -54 418 -191q152 -159 152 -356q0 -240 -248 -460q-200 -151 -621 -151h-152q-175 0 -175 23l-130 346l6 5q79 -9 79 -18l-6 -5q208 -287 530 -287q310 0 367 351l11 132q0 328 -383 456l-198 73v5l723 424l-1033 5
v-142l-11 -9h-74l-11 9v429q0 9 17 9z" />
    <glyph glyph-name="four" unicode="4" horiz-adv-x="1400" 
d="M813 1797h327l9 -9v-1152h187l9 -10v-64l-9 -9h-187v-475h135l10 -9v-60l-10 -9h-653l-9 9v60l9 9h173v475h-775l-9 9v64q0 10 42 10l742 1010v142zM799 1523l-648 -887h653v887h-5z" />
    <glyph glyph-name="five" unicode="5" horiz-adv-x="1300" 
d="M1064 1906h68l11 -9v-363q0 -14 -79 -14l-827 -5l-95 -4l-5 -396l-5 -5h5q188 97 379 97q500 0 674 -378q32 -99 32 -157v-73q0 -244 -274 -456q-228 -143 -532 -143h-137q-163 0 -163 28l-116 331l5 5h6q67 0 84 -46q98 -162 326 -240q98 -23 158 -23q259 0 343 341
l10 143q0 356 -258 548q-100 51 -184 51h-26q-143 0 -274 -143q-104 -118 -143 -272h-10v19q0 359 21 1077l5 5l5 -5l158 -4l827 4v78z" />
    <glyph glyph-name="six" unicode="6" horiz-adv-x="1258" 
d="M698 1842h51q255 0 370 -181q25 -52 25 -106q-23 -206 -199 -206q-58 0 -115 46q-56 58 -56 114q0 89 107 139q-26 105 -107 105l-55 9q-327 0 -387 -611l-4 -106q154 207 400 207q298 0 433 -312q43 -136 43 -270v-55q0 -218 -136 -425q-164 -190 -387 -190h-77
q-331 0 -489 329q-85 209 -85 485v71q0 446 217 746q189 211 451 211zM328 670v-21q0 -569 302 -569q221 0 259 299q12 58 17 232q0 367 -119 468q-68 59 -140 59h-26q-293 0 -293 -468z" />
    <glyph glyph-name="seven" unicode="7" horiz-adv-x="1146" 
d="M33 1810l1041 -5l40 -294q-79 -51 -171 -199q-361 -584 -361 -1280v-23l-8 -9h-312l-9 9q0 318 176 796q109 282 364 584q110 107 110 122l-808 5v-140l-9 -9h-57l-9 9v425q0 9 13 9z" />
    <glyph glyph-name="eight" unicode="8" horiz-adv-x="1159" 
d="M568 1837h44q240 0 392 -209q44 -86 44 -176v-46q0 -237 -268 -348v-5q202 -81 292 -264q44 -114 44 -204v-56q0 -326 -324 -487q-105 -42 -208 -42h-52q-382 0 -512 343q-20 78 -20 135v42q0 270 288 431l40 14v5q-159 73 -232 241q-20 64 -20 125v9q0 339 356 473
q79 19 136 19zM375 1505q-25 -214 155 -326l126 -84q144 106 175 370q26 227 -97 312q-38 19 -69 19h-40q-129 0 -221 -177zM440 928q-166 -115 -186 -470q-17 -292 170 -397l91 -15h28q174 0 255 276l8 73q18 310 -281 480z" />
    <glyph glyph-name="nine" unicode="9" horiz-adv-x="1258" 
d="M536 0h-51q-255 0 -370 181q-25 52 -25 106q23 206 199 206q58 0 115 -46q56 -58 56 -114q0 -89 -107 -139q26 -105 107 -105l55 -9q327 0 387 611l4 106q-154 -207 -400 -207q-298 0 -433 312q-43 136 -43 270v55q0 218 136 425q164 190 387 190h77q331 0 489 -329
q85 -209 85 -485v-71q0 -446 -217 -746q-189 -211 -451 -211zM906 1172v21q0 569 -302 569q-221 0 -259 -299q-12 -58 -17 -232q0 -367 119 -468q68 -59 140 -59h26q293 0 293 468z" />
    <glyph glyph-name="colon" unicode=":" horiz-adv-x="569" 
d="M289 944q46 0 78.5 -32.5t32.5 -78.5t-32.5 -78.5t-78.5 -32.5t-78.5 32.5t-32.5 78.5t32.5 78.5t78.5 32.5zM287 195q47 0 79.5 -33t32.5 -79t-33 -78.5t-79 -32.5t-78.5 32.5t-32.5 78.5t32.5 79t78.5 33z" />
    <glyph glyph-name="semicolon" unicode=";" horiz-adv-x="569" 
d="M282 945q46 0 78.5 -32t32.5 -78t-32.5 -78.5t-78.5 -32.5t-78.5 32.5t-32.5 78.5t32.5 78t78.5 32zM142 -341v44q103 34 159.5 105.5t56.5 151.5q0 19 -9 32q-7 9 -14 9q-11 0 -48 -20q-18 -9 -38 -9q-49 0 -78 29t-29 80q0 49 37.5 84t91.5 35q66 0 117.5 -57.5
t51.5 -152.5q0 -103 -71.5 -191.5t-226.5 -139.5z" />
    <glyph glyph-name="less" unicode="&#x3c;" horiz-adv-x="1155" 
d="M37 706l1076 466v-87l-926 -402l926 -406v-90l-1076 470v49z" />
    <glyph glyph-name="equal" unicode="=" horiz-adv-x="1155" 
d="M37 883h1079v-82h-1079v82zM37 557h1079v-82h-1079v82z" />
    <glyph glyph-name="greater" unicode="&#x3e;" horiz-adv-x="1155" 
d="M1113 653l-1076 -466v86l927 402l-927 406v91l1076 -470v-49z" />
    <glyph glyph-name="question" unicode="?" horiz-adv-x="909" 
d="M454 320h-41q7 126 31.5 208.5t101.5 229.5q60 113 78 173.5t18 122.5q0 127 -67.5 202t-165.5 75q-87 0 -137 -41t-50 -89q0 -37 30 -91t30 -82q0 -36 -23 -60.5t-56 -24.5q-42 0 -76.5 41.5t-34.5 115.5q0 113 97 200t263 87q206 0 303 -120q72 -88 72 -195
q0 -73 -32.5 -150t-123.5 -181q-145 -164 -177.5 -232.5t-39.5 -188.5zM440 196q47 0 79.5 -32.5t32.5 -79.5q0 -46 -33 -78.5t-79 -32.5t-78.5 32.5t-32.5 78.5q0 47 32.5 79.5t78.5 32.5z" />
    <glyph glyph-name="at" unicode="@" horiz-adv-x="1886" 
d="M1408 958l-117 -399q-65 -224 -79 -284t-14 -96q0 -32 21.5 -54t53.5 -22q73 0 175.5 73t175.5 237t73 342q0 171 -82.5 316t-233 222.5t-332.5 77.5q-231 0 -429 -122.5t-313.5 -352.5t-115.5 -478q0 -230 101.5 -418t285.5 -284.5t396 -96.5q263 0 475.5 141t328.5 412
h58q-90 -274 -327 -444t-540 -170q-238 0 -442 112.5t-317 319t-113 454.5q0 264 124 492.5t347.5 357t474.5 128.5q207 0 373.5 -85.5t253.5 -250t87 -349.5q0 -183 -81.5 -362.5t-207.5 -261.5t-263 -82q-76 0 -114.5 36t-38.5 101q0 56 18 147q-148 -179 -237 -232
t-157 -53q-71 0 -126 63.5t-55 169.5q0 145 94.5 325t250.5 293q115 83 206 83q67 0 111.5 -34.5t60.5 -103.5l33 110zM1057 917q-75 0 -152 -79q-113 -116 -193 -313q-59 -144 -59 -232q0 -63 35.5 -102.5t79.5 -39.5q58 0 122 44t134 135.5t102 183.5q56 159 56 259
q0 66 -36.5 105t-88.5 39z" />
    <glyph glyph-name="A" unicode="A" 
d="M732 1846q16 -16 216 -649l372 -1133h112l8 -9v-46l-8 -9h-536l-8 9v46l8 9h124q-70 230 -76 231h-704l-76 -231h152l8 -9v-46l-8 -9h-308l-8 9v46l8 9h68l604 1782h52zM600 1395l-336 -1036h664l-320 1036h-8z" />
    <glyph glyph-name="B" unicode="B" 
d="M864 1797q275 0 352 -220q36 -104 36 -212q0 -231 -164 -427l-80 -66l4 -4l-4 -5q170 -16 316 -119q144 -134 144 -308v-35q0 -209 -188 -331q-125 -70 -296 -70h-896l-8 9v48l8 9h200v1652h-248q-24 23 -40 75l4 4h860zM504 1721v-904h204q179 0 242 156q61 142 61 293
q-16 352 -178 434q-38 21 -82 21h-247zM504 749v-648h302q302 0 392 146q60 84 60 180q0 221 -254 309q-60 13 -108 13h-392z" />
    <glyph glyph-name="C" unicode="C" horiz-adv-x="1464" 
d="M800 1806h56q217 0 540 -137q8 -189 8 -512h-4l-64 31l4 4v5q-95 338 -116 357q-150 177 -360 177h-8l-16 4q-208 0 -384 -176q-144 -211 -144 -658q0 -484 168 -680q176 -150 356 -150l20 4h8q238 0 388 216q46 55 72 217l16 119l-4 4l68 31v-4q0 -526 -16 -526
q-321 -132 -532 -132h-56q-456 0 -696 424q-104 216 -104 428v102q0 391 296 675q229 177 504 177z" />
    <glyph glyph-name="D" unicode="D" horiz-adv-x="1745" 
d="M712 1797q483 0 640 -151q27 0 160 -155q176 -254 176 -541v-103q0 -374 -276 -652q-211 -173 -392 -173q0 -12 -308 -22h-672l-8 9v58l8 8h176v1647h-176q-11 0 -40 71l4 4h708zM660 1722h-172v-1647h172l16 -4l16 4q375 0 480 116q87 52 152 257q52 198 52 453
q0 646 -296 763q-96 58 -388 58l-12 4z" />
    <glyph glyph-name="E" unicode="E" horiz-adv-x="1539" 
d="M1488 1801l8 -9v-538h-4q-56 0 -56 89q-48 201 -136 276q-89 71 -268 71h-540l-40 -5v-724h180q271 0 352 217q28 83 52 205l44 18l4 -5v-947l-4 -4v-5l-52 22l4 5v4q-56 405 -356 405h-224v-760l40 -5h540q291 0 364 214q28 81 56 209l44 13v-538l-8 -9h-1480l-8 9v58
l8 9h176v1649h-144q-11 0 -40 72l4 4h1484z" />
    <glyph glyph-name="F" unicode="F" 
d="M1440 1797l8 -9v-537h-4q-56 0 -56 89q-48 201 -136 275q-89 71 -268 71h-512v-728h4q256 0 328 249l36 173l40 18l4 -5v-945l-4 -4v-5q-44 15 -44 40q-53 395 -324 395h-40v-799h180l8 -8v-58l-8 -9h-624l-8 9v58l8 8h176v1647h-144q-11 0 -40 71l4 4h1416z" />
    <glyph glyph-name="G" unicode="G" horiz-adv-x="1800" 
d="M884 1801h70q241 0 603 -137l9 -424h-5q-74 18 -74 62q-62 219 -198 318q-164 110 -352 110q-237 0 -436 -181q-154 -213 -154 -671q0 -554 234 -706q149 -93 308 -93h21q165 0 348 115q53 78 53 247v239l-5 110h-374l-8 9v44l8 9h858l9 -9v-44l-9 -9h-193v-613
q-74 -47 -220 -93q-258 -84 -458 -84h-83q-360 0 -612 252q-224 268 -224 596v101q0 375 299 649q259 203 585 203z" />
    <glyph glyph-name="H" unicode="H" horiz-adv-x="1750" 
d="M38 1797h620l8 -9v-56l-8 -9h-176v-1117h776v1117h-176l-8 9v56l8 9h620l8 -9v-56l-8 -9h-176v-1649h176l8 -9v-56l-8 -9h-620l-8 9v56l8 9h176v454h-776v-454h176l8 -9v-56l-8 -9h-620l-8 9v56l8 9h176v1649h-176l-8 9v56z" />
    <glyph glyph-name="I" unicode="I" horiz-adv-x="679" 
d="M28 1810h620l8 -9v-60l-8 -9h-172v-1654h172l8 -9v-60l-8 -9h-620l-8 9v60l8 9h152v1654h-152l-8 9v60z" />
    <glyph glyph-name="J" unicode="J" horiz-adv-x="941" 
d="M56 1780h828l8 -8v-40l-8 -8h-192v-1680q0 -302 -80 -372q-52 -78 -200 -120q-150 -32 -252 -32h-48q-249 0 -384 176q-28 51 -28 92v36q23 164 140 164q96 0 132 -96l4 -24q0 -93 -124 -164l-4 -12q36 -120 240 -120q189 0 272 92q76 114 76 380v1680h-380l-8 8v40z" />
    <glyph glyph-name="K" unicode="K" horiz-adv-x="1600" 
d="M38 1801h624l8 -9v-59l-8 -10h-176v-410h320l276 406v4h-204l-8 10v59l8 9h508l8 -9v-59l-8 -10h-200l-324 -483l456 -1162h224l8 -10v-59l-8 -9h-624l-8 9v59l8 10h104l-456 1158h-80v-1158h176l8 -10v-59l-8 -9h-624l-8 9v59l8 10h152v1645h-152l-8 10v59z" />
    <glyph glyph-name="L" unicode="L" horiz-adv-x="1539" 
d="M18 1797h620l8 -9v-58l-8 -8h-176v-1607l40 -4h540q291 0 364 213q28 81 56 208l44 14v-537l-8 -9h-1380l-8 9v58l8 8h76v1647h-176l-8 8v58z" />
    <glyph glyph-name="M" unicode="M" horiz-adv-x="2153" 
d="M28 1806h564q7 0 20 -67q60 -150 464 -1280q41 78 488 1182q68 163 76 165h452l8 -9v-58l-8 -9h-172v-1641h172l8 -9v-62l-8 -9h-620l-8 9v62l8 9h176v1481h-4l-512 -1258l104 -290l-4 -4h-360q-15 6 -112 294l-432 1195h-4v-1431h264l8 -9v-58l-8 -9h-560l-8 9v58l8 9
h196v1654h-196l-8 9v58z" />
    <glyph glyph-name="N" unicode="N" horiz-adv-x="1900" 
d="M28 1801h564q45 -54 500 -823q16 -13 420 -693h4v1440h-200l-8 9v58l8 9h564l8 -9v-58l-8 -9h-264v-1596l56 -111h-364q-37 46 -976 1610l-4 4h-4v-1556h264l8 -9v-58l-8 -9h-560l-8 9v58l8 9h196v1649h-196l-8 9v58z" />
    <glyph glyph-name="O" unicode="O" horiz-adv-x="1800" 
d="M874 1833h73q342 0 637 -328q208 -286 208 -577v-69q0 -381 -323 -697q-264 -208 -522 -208h-73q-342 0 -637 328q-208 286 -208 577v69q0 381 323 697q264 208 522 208zM373 900v-13q0 -455 280 -739q136 -116 289 -116q311 0 497 458q64 215 64 378v60q0 397 -251 693
q-157 143 -314 143q-277 0 -463 -370q-102 -231 -102 -494z" />
    <glyph glyph-name="P" unicode="P" horiz-adv-x="1343" 
d="M644 1819h44q620 0 620 -571v-88q0 -271 -152 -473q-93 -112 -252 -112l-140 5h-260v-506h168l8 -9v-56l-8 -9h-644l-8 9v56l8 9h200l-4 1652h-196l-8 9v61q0 9 12 9zM520 1726v-1067h200q207 0 256 176q48 178 48 381q0 384 -124 459q-55 51 -268 51h-112z" />
    <glyph glyph-name="Q" unicode="Q" horiz-adv-x="1800" 
d="M866 1800h71q334 0 623 -315q203 -276 203 -556v-67q0 -336 -266 -622q-150 -148 -332 -209v-4q17 -267 96 -267q49 -26 157 -26h29v-9q-187 -40 -265 -40h-21q-149 0 -224 84q-39 50 -58 218q-265 0 -540 217q-162 170 -199 267q-100 204 -100 387v71q0 367 316 671
q259 200 510 200zM376 902v-17q0 -440 283 -716q139 -98 211 -98v4q0 99 -70 209q-89 76 -229 76l-4 4v5l4 4h196q289 0 352 -138q17 -28 34 -97q180 114 278 413q50 161 50 347v31q0 381 -245 667q-154 138 -308 138q-271 0 -452 -356q-100 -223 -100 -476z" />
    <glyph glyph-name="R" unicode="R" horiz-adv-x="1548" 
d="M779 1806q496 0 630 -284q61 -142 61 -326q0 -337 -190 -532q-41 -37 -52 -37v-9q123 -44 190 -170q39 -85 65 -532q30 -174 77 -174q56 -42 130 -42h73l5 -4h4q-27 -50 -52 -69h-229q-228 0 -280 174q-35 97 -52 427q-27 231 -78 284q0 16 -60 64l-289 5h-134v-505h181
l9 -9v-55l-9 -9h-695l-8 9v55l8 9h216v1639h-216q-15 8 -43 73l4 5h48zM615 1715v-1061h151q257 0 311 111q82 160 82 426q0 373 -112 459q-61 65 -363 65h-69z" />
    <glyph glyph-name="S" unicode="S" horiz-adv-x="1400" 
d="M683 1797q245 0 577 -120l5 -36l5 -320l-72 27l6 4q-58 208 -184 289q-192 107 -393 107q-244 0 -342 -173q-25 -50 -25 -116v-13q0 -214 403 -321q451 -154 551 -258q163 -161 163 -333q0 -269 -311 -445q-177 -89 -444 -89q-263 0 -577 116l-15 329l71 40
q65 -216 133 -285q197 -160 439 -160q335 0 459 227q26 67 26 124q0 263 -526 401q-346 110 -459 222q-143 126 -143 276v36q0 216 327 404q148 67 326 67z" />
    <glyph glyph-name="T" unicode="T" 
d="M38 1797h1412l8 -9v-453l-8 -9q-44 9 -44 37q-30 145 -96 233q-86 105 -324 105h-96v-1623h176l8 -9v-60l-8 -9h-624l-8 9v60l8 9h176v1623h-116q-292 0 -360 -165q-55 -116 -64 -196l-44 -14l-4 5v457z" />
    <glyph glyph-name="U" unicode="U" horiz-adv-x="1647" 
d="M28 1810h624l8 -9v-58l-8 -9h-168v-1260q0 -218 264 -327q93 -26 176 -26q290 0 396 228q20 66 20 107v1278h-288l-8 9v58l8 9h544l8 -9v-58l-8 -9h-184v-1198q0 -254 -132 -366q-186 -170 -440 -170h-60q-286 0 -472 206q-96 112 -96 295v1233h-184l-8 9v58z" />
    <glyph glyph-name="V" unicode="V" horiz-adv-x="1600" 
d="M38 1806h555l8 -9v-60l-8 -9h-115l331 -1365q24 45 97 317l314 1048h-208l-8 9v60l8 9h555l8 -9v-60l-8 -9h-249l-460 -1553l40 -170l-4 -5h-265q-16 26 -85 340l-343 1388h-163l-8 9v60z" />
    <glyph glyph-name="W" unicode="W" horiz-adv-x="2600" 
d="M48 1797h728l8 -9v-45l-8 -9h-240v-4l404 -1291q8 0 216 641l220 654h-244l-8 9v45l8 9h508l8 -9v-45l-8 -9h-176l-92 -282l364 -1013h4l488 1295h-276l-8 9v45l8 9h576l8 -9v-45l-8 -9h-192q-45 -91 -512 -1304l-176 -430h-56q-10 4 -376 995h-8q-334 -995 -344 -995
h-48q-11 5 -144 426l-432 1308h-192l-8 9v45z" />
    <glyph glyph-name="X" unicode="X" horiz-adv-x="1947" 
d="M174 1801h636l8 -9v-58l-8 -9h-96q342 -573 364 -598l424 598h-224l-8 9v58l8 9h636l8 -9v-58l-8 -9h-276q-28 -28 -500 -696v-5l572 -948h204l8 -9v-58l-8 -9h-792l-8 9v58l8 9h232v5l-412 674l-484 -679h352l8 -9v-58l-8 -9h-792l-8 9v58l8 9h304q21 19 384 535
q176 237 176 251q-45 65 -524 863h-184l-8 9v58z" />
    <glyph glyph-name="Y" unicode="Y" horiz-adv-x="1557" 
d="M28 1806h544l8 -9v-59l-8 -9h-68l304 -720h4l360 720h-188l-8 9v59l8 9h544l8 -9v-59l-8 -9h-252q-11 -4 -256 -508l-156 -311v-833h136l8 -9v-59l-8 -9h-544l-8 9v59l8 9h136v725l-388 927h-176l-8 9v59z" />
    <glyph glyph-name="Z" unicode="Z" horiz-adv-x="1557" 
d="M38 1797h1460v-9l-1068 -1666v-5l108 -4h492q294 0 360 194q40 80 64 230l44 18l4 -4v-542l-8 -9h-1460v9l1068 1666v5l-108 4h-492q-294 0 -360 -194q-40 -80 -64 -230l-44 -18l-4 4v542z" />
    <glyph glyph-name="bracketleft" unicode="[" horiz-adv-x="682" 
d="M608 -406h-440v1793h440v-79h-290v-1636h290v-78z" />
    <glyph glyph-name="backslash" unicode="\" horiz-adv-x="569" 
d="M83 1422l490 -1450h-80l-490 1450h80z" />
    <glyph glyph-name="bracketright" unicode="]" horiz-adv-x="682" 
d="M75 1387h440v-1794h-440v79h290v1636h-290v79z" />
    <glyph glyph-name="asciicircum" unicode="^" horiz-adv-x="961" 
d="M498 1384l425 -717h-92l-350 586l-350 -586h-94l431 717h30z" />
    <glyph glyph-name="underscore" unicode="_" horiz-adv-x="1024" 
d="M1042 -442h-1059v84h1059v-84z" />
    <glyph glyph-name="grave" unicode="`" horiz-adv-x="682" 
d="M118 1390h223l106 -345h-35z" />
    <glyph glyph-name="a" unicode="a" 
d="M732 1510q16 -13 216 -531l372 -926h112l8 -8v-37l-8 -8h-536l-8 8v37l8 8h124q-70 187 -76 188h-704l-76 -188h152l8 -8v-37l-8 -8h-308l-8 8v37l8 8h68l604 1457h52zM600 1141l-336 -847h664l-320 847h-8z" />
    <glyph glyph-name="b" unicode="b" 
d="M864 1506q275 0 352 -185q36 -87 36 -177q0 -193 -164 -358l-80 -55l4 -4l-4 -4q170 -13 316 -99q144 -113 144 -259v-29q0 -175 -188 -277q-125 -59 -296 -59h-896l-8 7v41l8 7h200v1385h-248q-24 19 -40 62l4 4h860zM504 1442v-758h204q179 0 242 132q61 119 61 245
q-16 295 -178 363q-38 18 -82 18h-247zM504 628v-543h302q302 0 392 122q60 71 60 151q0 185 -254 258q-60 12 -108 12h-392z" />
    <glyph glyph-name="c" unicode="c" horiz-adv-x="1540" 
d="M800 1510h56q217 0 540 -114q8 -159 8 -429h-4l-64 26l4 4v4q-95 283 -116 299q-150 147 -360 147h-8l-16 4q-208 0 -384 -148q-144 -176 -144 -550q0 -404 168 -568q176 -126 356 -126l20 4h8q238 0 388 181q46 46 72 181l16 99l-4 4l68 26v-4q0 -439 -16 -439
q-321 -111 -532 -111h-56q-456 0 -696 354q-104 181 -104 359v84q0 328 296 565q229 148 504 148z" />
    <glyph glyph-name="d" unicode="d" horiz-adv-x="1745" 
d="M712 1497q483 0 640 -126q27 0 160 -129q176 -212 176 -451v-85q0 -312 -276 -543q-211 -145 -392 -145q0 -9 -308 -18h-672l-8 7v48l8 8h176v1371h-176q-11 0 -40 59l4 4h708zM660 1434h-172v-1371h172l16 -4l16 4q375 0 480 96q87 43 152 214q52 165 52 377
q0 539 -296 636q-96 48 -388 48l-12 4z" />
    <glyph glyph-name="e" unicode="e" horiz-adv-x="1539" 
d="M1488 1497l8 -7v-448h-4q-56 0 -56 74q-48 167 -136 229q-89 60 -268 60h-540l-40 -4v-603h180q271 0 352 182q28 68 52 170l44 14l4 -3v-788l-4 -3v-4l-52 18l4 4v4q-56 336 -356 336h-224v-632l40 -4h540q291 0 364 178q28 67 56 174l44 11v-448l-8 -7h-1480l-8 7v48
l8 8h176v1371h-144q-11 0 -40 59l4 4h1484z" />
    <glyph glyph-name="f" unicode="f" 
d="M1440 1497l8 -7v-448h-4q-56 0 -56 74q-48 167 -136 229q-89 60 -268 60h-512v-607h4q256 0 328 207l36 145l40 14l4 -3v-788l-4 -3v-4q-44 12 -44 33q-53 329 -324 329h-40v-665h180l8 -8v-48l-8 -7h-624l-8 7v48l8 8h176v1371h-144q-11 0 -40 59l4 4h1416z" />
    <glyph glyph-name="g" unicode="g" horiz-adv-x="1800" 
d="M884 1506h70q241 0 603 -114l9 -355h-5q-74 15 -74 52q-62 183 -198 266q-164 92 -352 92q-237 0 -436 -151q-154 -179 -154 -561q0 -464 234 -591q149 -78 308 -78h21q165 0 348 96q53 65 53 207v199l-5 93h-374l-8 7v37l8 7h858l9 -7v-37l-9 -7h-193v-513
q-74 -39 -220 -78q-258 -70 -458 -70h-83q-360 0 -612 210q-224 225 -224 499v85q0 313 299 542q259 170 585 170z" />
    <glyph glyph-name="h" unicode="h" horiz-adv-x="1750" 
d="M38 1497h620l8 -7v-48l-8 -7h-176v-930h776v930h-176l-8 7v48l8 7h620l8 -7v-48l-8 -7h-176v-1373h176l8 -7v-48l-8 -7h-620l-8 7v48l8 7h176v378h-776v-378h176l8 -7v-48l-8 -7h-620l-8 7v48l8 7h176v1373h-176l-8 7v48z" />
    <glyph glyph-name="i" unicode="i" horiz-adv-x="679" 
d="M28 1506h620l8 -8v-49l-8 -8h-172v-1376h172l8 -8v-49l-8 -8h-620l-8 8v49l8 8h152v1376h-152l-8 8v49z" />
    <glyph glyph-name="j" unicode="j" horiz-adv-x="1249" 
d="M364 1506h828l8 -7v-35l-8 -7h-192v-1461q0 -263 -80 -324q-52 -68 -200 -104q-150 -28 -252 -28h-48q-249 0 -384 153q-28 45 -28 80v32q23 142 140 142q96 0 132 -83l4 -21q0 -81 -124 -143l-4 -10q36 -105 240 -105q189 0 272 80q76 99 76 331v1461h-380l-8 7v35z" />
    <glyph glyph-name="k" unicode="k" horiz-adv-x="1600" 
d="M38 1515h624l8 -8v-50l-8 -7h-176v-345h320l276 341v4h-204l-8 7v50l8 8h508l8 -8v-50l-8 -7h-200l-324 -407l456 -978h224l8 -7v-50l-8 -8h-624l-8 8v50l8 7h104l-456 974h-80v-974h176l8 -7v-50l-8 -8h-624l-8 8v50l8 7h152v1385h-152l-8 7v50z" />
    <glyph glyph-name="l" unicode="l" horiz-adv-x="1539" 
d="M18 1492h620l8 -7v-48l-8 -8h-176v-1333l40 -4h540q291 0 364 177q28 67 56 173l44 11v-446l-8 -7h-1380l-8 7v48l8 8h76v1366h-176l-8 8v48z" />
    <glyph glyph-name="m" unicode="m" horiz-adv-x="2153" 
d="M28 1506h564q7 0 20 -56q60 -125 464 -1067q41 65 488 985q68 136 76 138h452l8 -7v-49l-8 -7h-172v-1369h172l8 -7v-52l-8 -8h-620l-8 8v52l8 7h176v1235h-4l-512 -1049l104 -241l-4 -4h-360q-15 5 -112 245l-432 997h-4v-1194h264l8 -7v-49l-8 -7h-560l-8 7v49l8 7h196
v1380h-196l-8 7v49z" />
    <glyph glyph-name="n" unicode="n" horiz-adv-x="1900" 
d="M28 1501h564q45 -45 500 -686q16 -11 420 -578h4v1201h-200l-8 7v49l8 7h564l8 -7v-49l-8 -7h-264v-1331l56 -92h-364q-37 39 -976 1341l-4 4h-4v-1297h264l8 -7v-49l-8 -7h-560l-8 7v49l8 7h196v1375h-196l-8 7v49z" />
    <glyph glyph-name="o" unicode="o" horiz-adv-x="1800" 
d="M874 1497h73q342 0 637 -269q208 -235 208 -474v-57q0 -313 -323 -572q-264 -171 -522 -171h-73q-342 0 -637 269q-208 235 -208 474v57q0 313 323 572q264 171 522 171zM373 731v-11q0 -374 280 -607q136 -95 289 -95q311 0 497 376q64 177 64 311v49q0 326 -251 569
q-157 117 -314 117q-277 0 -463 -303q-102 -190 -102 -406z" />
    <glyph glyph-name="p" unicode="p" horiz-adv-x="1343" 
d="M688 1501q620 0 620 -471v-73q0 -223 -152 -390q-93 -92 -252 -92l-140 4h-260v-418h168l8 -7v-46l-8 -8h-644l-8 8v46l8 7h200l-4 1363h-196l-8 8v50q0 8 12 8zM520 1424v-880h200q207 0 256 145q48 147 48 314q0 318 -124 379q-55 42 -268 42h-112z" />
    <glyph glyph-name="q" unicode="q" horiz-adv-x="1800" 
d="M866 1515h71q334 0 623 -273q203 -238 203 -481v-57q0 -291 -266 -539q-150 -128 -332 -180v-4q17 -231 96 -231q49 -23 157 -23h29v-8q-187 -34 -265 -34h-21q-149 0 -224 73q-39 43 -58 188q-265 0 -540 188q-162 147 -199 231q-100 176 -100 335v61q0 318 316 581
q259 173 510 173zM376 738v-15q0 -380 283 -620q139 -84 211 -84v4q0 85 -70 181q-89 65 -229 65l-4 4v4l4 3h196q289 0 352 -119q17 -25 34 -84q180 98 278 357q50 139 50 300v27q0 330 -245 577q-154 119 -308 119q-271 0 -452 -307q-100 -193 -100 -412z" />
    <glyph glyph-name="r" unicode="r" 
d="M757 1506q496 0 630 -236q61 -118 61 -270q0 -279 -190 -442q-41 -29 -52 -29v-9q123 -35 190 -141q39 -69 65 -440q30 -144 77 -144q56 -35 130 -35h73l5 -3h4q-27 -42 -52 -57h-229q-228 0 -280 144q-35 81 -52 353q-27 193 -78 237q0 12 -60 53l-289 3h-134v-417h181
l9 -8v-46l-9 -8h-695l-8 8v46l8 8h216v1357h-216q-15 7 -43 60l4 4zM593 1430v-879h151q257 0 311 91q82 134 82 354q0 309 -112 381q-61 53 -363 53h-69z" />
    <glyph glyph-name="s" unicode="s" horiz-adv-x="1400" 
d="M683 1515q245 0 577 -101l5 -30l5 -270l-72 22l6 4q-58 175 -184 244q-192 90 -393 90q-244 0 -342 -146q-25 -43 -25 -98v-11q0 -180 403 -270q451 -130 551 -218q163 -136 163 -281q0 -227 -311 -375q-177 -75 -444 -75q-263 0 -577 98l-15 277l71 34q65 -182 133 -240
q197 -135 439 -135q335 0 459 191q26 57 26 105q0 222 -526 338q-346 93 -459 187q-143 106 -143 233v30q0 182 327 341q148 56 326 56z" />
    <glyph glyph-name="t" unicode="t" 
d="M38 1501h1412l8 -8v-378l-8 -7q-44 7 -44 30q-30 121 -96 195q-86 88 -324 88h-96v-1356h176l8 -8v-49l-8 -8h-624l-8 8v49l8 8h176v1356h-116q-292 0 -360 -138q-55 -97 -64 -164l-44 -11l-4 3v382z" />
    <glyph glyph-name="u" unicode="u" horiz-adv-x="1647" 
d="M28 1497h624l8 -7v-48l-8 -8h-168v-1042q0 -181 264 -270q93 -22 176 -22q290 0 396 188q20 55 20 89v1057h-288l-8 8v48l8 7h544l8 -7v-48l-8 -8h-184v-990q0 -211 -132 -304q-186 -140 -440 -140h-60q-286 0 -472 170q-96 93 -96 244v1020h-184l-8 8v48z" />
    <glyph glyph-name="v" unicode="v" horiz-adv-x="1600" 
d="M38 1506h555l8 -8v-49l-8 -8h-115l331 -1138q24 37 97 264l314 874h-208l-8 8v49l8 8h555l8 -8v-49l-8 -8h-249l-460 -1295l40 -142l-4 -4h-265q-16 22 -85 284l-343 1157h-163l-8 8v49z" />
    <glyph glyph-name="w" unicode="w" horiz-adv-x="2600" 
d="M48 1497h728l8 -7v-38l-8 -7h-240v-4l404 -1075q8 0 216 534l220 545h-244l-8 7v38l8 7h508l8 -7v-38l-8 -7h-176l-92 -235l364 -844h4l488 1079h-276l-8 7v38l8 7h576l8 -7v-38l-8 -7h-192q-45 -76 -512 -1087l-176 -358h-56q-10 3 -376 829h-8q-334 -829 -344 -829h-48
q-11 4 -144 355l-432 1090h-192l-8 7v38z" />
    <glyph glyph-name="x" unicode="x" horiz-adv-x="1947" 
d="M174 1506h636l8 -8v-48l-8 -8h-96q342 -479 364 -499l424 499h-224l-8 8v48l8 8h636l8 -8v-48l-8 -8h-276q-28 -23 -500 -582v-4l572 -792h204l8 -8v-48l-8 -8h-792l-8 8v48l8 8h232v4l-412 563l-484 -567h352l8 -8v-48l-8 -8h-792l-8 8v48l8 8h304q21 16 384 447
q176 198 176 210q-45 54 -524 721h-184l-8 8v48z" />
    <glyph glyph-name="y" unicode="y" horiz-adv-x="1557" 
d="M28 1501h544l8 -7v-49l-8 -8h-68l304 -599h4l360 599h-188l-8 8v49l8 7h544l8 -7v-49l-8 -8h-252q-11 -3 -256 -423l-156 -258v-692h136l8 -8v-49l-8 -7h-544l-8 7v49l8 8h136v602l-388 771h-176l-8 8v49z" />
    <glyph glyph-name="z" unicode="z" horiz-adv-x="1557" 
d="M38 1501h1460v-8l-1068 -1391v-4l108 -4h492q294 0 360 162q40 67 64 193l44 15l4 -4v-452l-8 -8h-1460v8l1068 1391v4l-108 4h-492q-294 0 -360 -162q-40 -67 -64 -193l-44 -15l-4 4v452z" />
    <glyph glyph-name="braceleft" unicode="{" horiz-adv-x="983" 
d="M841 -407v-35q-167 23 -271.5 135.5t-104.5 249.5q0 72 23 167.5t23 148.5q0 72 -60.5 134.5t-167.5 76.5v41q107 14 167.5 76t60.5 135q0 53 -23 148t-23 168q0 136 104.5 249t271.5 135v-35q-117 -28 -171.5 -91.5t-54.5 -139.5q0 -59 22.5 -155.5t22.5 -164.5
q0 -101 -74 -196t-221 -147q144 -53 219.5 -150t75.5 -198q0 -68 -22.5 -164.5t-22.5 -155.5q0 -76 54.5 -139.5t171.5 -92.5z" />
    <glyph glyph-name="bar" unicode="|" horiz-adv-x="410" 
d="M244 1422v-1864h-83v1864h83z" />
    <glyph glyph-name="braceright" unicode="}" horiz-adv-x="983" 
d="M177 1387v35q167 -22 271.5 -134.5t104.5 -250.5q0 -72 -23 -167t-23 -148q0 -72 60.5 -134.5t167.5 -76.5v-41q-107 -14 -167.5 -76.5t-60.5 -134.5q0 -53 23 -148.5t23 -167.5q0 -136 -104.5 -249t-271.5 -136v35q117 29 171.5 92t54.5 140q0 59 -23 155.5t-23 163.5
q0 102 74.5 197t221.5 147q-144 53 -220 150t-76 198q0 68 23 164.5t23 155.5q0 76 -54.5 139.5t-171.5 91.5z" />
    <glyph glyph-name="asciitilde" unicode="~" horiz-adv-x="1108" 
d="M1042 675h45q-4 -130 -74 -203.5t-171 -73.5q-46 0 -99 15.5t-274 105.5q-154 64 -219 64q-70 0 -118 -43t-68 -140h-44q6 135 74 206.5t160 71.5q44 0 90 -14q104 -30 273.5 -102.5t238.5 -72.5q75 0 126 48t60 138z" />
    <glyph glyph-name="Ccedilla" unicode="&#xc7;" horiz-adv-x="1472" 
d="M800 -60l125 13l-50 -79q63 -16 94 -54t31 -92q0 -72 -60 -126.5t-155 -54.5q-37 0 -94 7v43q28 -4 48 -4q51 0 86 33.5t35 76.5q0 30 -23 52t-57 22l-80 23zM800 1806h56q217 0 540 -137q8 -189 8 -512h-4l-64 31l4 4v5q-95 338 -116 357q-150 177 -360 177h-8l-16 4
q-208 0 -384 -176q-144 -211 -144 -658q0 -484 168 -680q176 -150 356 -150l20 4h8q238 0 388 216q46 55 72 217l16 119l-4 4l68 31v-4q0 -526 -16 -526q-321 -132 -532 -132h-56q-456 0 -696 424q-104 216 -104 428v102q0 391 296 675q229 177 504 177z" />
    <glyph glyph-name="Eacute" unicode="&#xc9;" horiz-adv-x="1600" 
d="M1000 1907l-295 -240h-34l105 240h224zM1488 1631l8 -8v-487h-4q-56 0 -56 80q-48 182 -136 250q-89 64 -268 64h-540l-40 -4v-656h180q271 0 352 197q28 75 52 185l44 17l4 -4v-858l-4 -4v-4l-52 20l4 4v4q-56 366 -356 366h-224v-688l40 -4h540q291 0 364 193
q28 73 56 189l44 12v-487l-8 -8h-1480l-8 8v52l8 8h176v1495h-144q-11 0 -40 64l4 4h1484z" />
    <glyph glyph-name="Ntilde" unicode="&#xd1;" horiz-adv-x="1910" 
d="M722 1603h-32q4 97 57 140.5t131 43.5q41 0 75 -9q45 -12 127.5 -51t122.5 -39q32 0 56.5 19.5t38.5 79.5h31q1 -66 -24.5 -105t-72 -60.5t-93.5 -21.5q-79 0 -196 57q-63 31 -85 37t-43 6q-41 0 -65 -25q-11 -12 -28 -72zM28 1639h564q45 -49 500 -749q16 -12 420 -631
h4v1311h-200l-8 8v53l8 8h564l8 -8v-53l-8 -8h-264v-1453l56 -101h-364q-37 43 -976 1465l-4 4h-4v-1416h264l8 -8v-53l-8 -8h-560l-8 8v53l8 8h196v1501h-196l-8 8v53z" />
    <glyph glyph-name="registered" unicode="&#xae;" horiz-adv-x="1556" 
d="M778 1387q179 0 349 -91.5t265.5 -262t95.5 -355.5q0 -184 -94 -353t-263 -262.5t-353 -93.5t-352.5 93.5t-262.5 262.5t-94 353q0 185 95.5 355.5t265.5 262t348 91.5zM778 1326q-163 0 -318 -84t-242 -239.5t-87 -324.5q0 -168 85.5 -322t239.5 -240t322 -86t322.5 86
t240 240t85.5 322q0 169 -87 324.5t-242 239.5t-319 84zM386 1114h386q145 0 221 -65.5t76 -158.5q0 -76 -51.5 -133.5t-170.5 -88.5l209 -298q38 -53 68 -73q19 -12 53 -15v-33h-184l-294 405h-76v-309q6 -33 28.5 -48t89.5 -15v-33h-367v33q48 0 68 11.5t29 33.5
q7 16 7 93v523q0 74 -3 87q-7 23 -25.5 35.5t-63.5 12.5v36zM623 697q118 0 172.5 23t83.5 64.5t29 94.5q0 81 -56.5 136t-144.5 55q-38 0 -84 -16v-357z" />
    <glyph glyph-name="copyright" unicode="&#xa9;" horiz-adv-x="1556" 
d="M778 1387q179 0 349 -91.5t265.5 -262t95.5 -355.5q0 -184 -94 -353t-263 -262.5t-353 -93.5t-352.5 93.5t-262.5 262.5t-94 353q0 185 95.5 355.5t265.5 262t348 91.5zM778 1326q-163 0 -318 -84t-242 -239.5t-87 -324.5q0 -168 85.5 -322t239.5 -240t322 -86t322.5 86
t240 240t85.5 322q0 169 -87 324.5t-242 239.5t-319 84zM1129 1134l20 -280h-39q-36 119 -114.5 177.5t-188.5 58.5q-82 0 -146 -34t-105 -91q-30 -43 -50 -114t-20 -150q0 -212 91 -312.5t240 -100.5q195 0 312 162l37 -19q-139 -203 -383 -203q-200 0 -331.5 129.5
t-131.5 314.5q0 192 140 327.5t358 135.5q46 0 76.5 -6t108.5 -32q25 -8 37 -8q16 0 27 8.5t22 36.5h40z" />
    <glyph glyph-name="acute" unicode="&#xb4;" horiz-adv-x="682" 
d="M565 1390l-295 -345h-34l105 345h224z" />
    <glyph glyph-name="dieresis" unicode="&#xa8;" horiz-adv-x="682" 
d="M518 1337q45 0 76.5 -32t31.5 -77t-31.5 -76.5t-76.5 -31.5t-77 31.5t-32 76.5t32 77t77 32zM165 1337q46 0 77.5 -32t31.5 -77t-32 -76.5t-76 -31.5q-45 0 -77 31.5t-32 76.5t31.5 77t76.5 32z" />
  </font>
</defs>
</svg>
